<svg xmlns:xlink="http://www.w3.org/1999/xlink" xmlns="http://www.w3.org/2000/svg" width="56" height="49" viewBox="0 0 56 49" fill="none">
<path d="M32.2594 3.71375V48.3176H27.5946C26.6438 48.3156 25.703 48.1223 24.8275 47.7492C23.9521 47.3761 23.1596 46.8306 22.4968 46.1449C21.1394 44.7412 20.3814 42.8593 20.3848 40.901V18.7106C20.3844 18.5936 20.3503 18.4792 20.2865 18.3813C20.2236 18.2848 20.1336 18.2093 20.028 18.1643C19.9229 18.1191 19.8066 18.107 19.6945 18.1296C19.5824 18.1522 19.4798 18.2085 19.4001 18.2909L14.7933 23.0315C14.7126 23.1153 14.658 23.221 14.6362 23.3356C14.6145 23.4502 14.6265 23.5688 14.6708 23.6766C14.7144 23.7847 14.7883 23.8767 14.8814 23.9418C14.9763 24.0076 15.0871 24.0431 15.2004 24.0431H17.1622C17.315 24.0431 17.4619 24.1064 17.571 24.2179C17.6798 24.3304 17.7404 24.4814 17.7397 24.6384V35.6648C17.7402 35.8218 17.6796 35.9727 17.571 36.0853C17.5178 36.1403 17.4543 36.184 17.3841 36.2138C17.3138 36.2437 17.2384 36.2592 17.1622 36.2593H10.3779C9.90258 36.2581 9.43226 36.1615 8.99451 35.9752C8.55675 35.7889 8.16036 35.5166 7.82855 35.1742L2.11202 29.292C0.754425 27.8881 -0.00356115 26.0058 1.25798e-05 24.0473C-0.00303155 22.0893 0.754552 20.2076 2.11118 18.8035L18.8033 1.63564C19.3018 1.11949 19.8973 0.708166 20.5552 0.425586C21.2098 0.145389 21.9138 0.000651139 22.6252 0H28.6557C29.1312 0.00213096 29.6015 0.0996416 30.0391 0.286826C30.4767 0.474011 30.8728 0.747109 31.2042 1.09014C31.8823 1.79297 32.2609 2.73432 32.2594 3.71375ZM55.4226 42.5299V46.3104C55.4226 46.8449 55.2161 47.3574 54.8493 47.7349C54.6692 47.9212 54.4539 48.0695 54.2161 48.1708C53.9782 48.2722 53.7226 48.3247 53.4642 48.3251H43.5455V47.7974C43.5455 46.6169 43.0889 45.281 42.278 44.4467L34.9078 36.8656V23.8362H37.2498C37.8185 23.836 38.3815 23.9508 38.9051 24.174C39.432 24.3991 39.9092 24.7275 40.3087 25.14L43.5455 28.4729L54.1601 39.3819C54.5614 39.7957 54.8795 40.2871 55.0961 40.8267C55.3127 41.3671 55.4235 41.9456 55.4235 42.5299H55.4226ZM55.8314 1.02006L37.0441 20.3445C36.8163 20.5794 36.5441 20.7661 36.2435 20.8937C35.943 21.0213 35.6201 21.0872 35.2939 21.0876H34.8977V5.51235C34.8978 5.35552 34.9583 5.20483 35.0664 5.09184L39.1511 0.895082C39.4235 0.613939 39.7488 0.390056 40.108 0.236437C40.4653 0.0832636 40.8496 0.00400282 41.2379 0.00337765H55.4167C55.5321 0.00223257 55.6451 0.0363932 55.7408 0.10133C55.8124 0.151307 55.8724 0.216323 55.9166 0.291891C55.9609 0.367459 55.9883 0.451781 55.997 0.53904C56.0057 0.626299 55.9955 0.714417 55.967 0.797316C55.9386 0.880215 55.8926 0.955921 55.8323 1.01921L55.8314 1.02006Z" fill="#0F36FF"/>
</svg>