<svg xmlns="http://www.w3.org/2000/svg" fill="none" viewBox="0 0 156 33" width="156" height="33">
  <path fill="url(&quot;#paint0_radial&quot;)" d="m24.26 26.795-1.815-4.574H12.05l-1.815 4.574H6l9.64-22.684h3.214l9.64 22.684H24.26ZM17.34 9.21l-4.08 10.086h8.09L17.34 9.21Z"/>
  <path fill="url(&quot;#paint1_radial&quot;)" d="m42.671 26.795-5.255-7.462-2.76 2.7v4.762h-3.78V4.11h3.78v13.986l7.26-7.462h4.574l-6.503 6.337 7.334 9.824h-4.65Z"/>
  <path fill="url(&quot;#paint2_radial&quot;)" d="m61.99 26.795-5.255-7.462-2.76 2.7v4.762h-3.78V4.11h3.78v13.986l7.296-7.462h4.575l-6.503 6.337 7.334 9.824H61.99Z"/>
  <path fill="url(&quot;#paint3_radial&quot;)" d="M79.228 26.795v-1.463c-1.36 1.163-2.646 1.65-4.99 1.65-2.344 0-3.894-.487-5.028-1.462-.945-.863-1.475-2.1-1.475-3.487 0-2.7 2.193-4.65 6.503-4.65h4.915v-1.162c0-2.062-1.135-3.037-4.121-3.037-2.004 0-3.025.45-4.121 1.612l-2.457-2.025c1.739-1.8 3.553-2.362 6.691-2.362 5.18 0 7.712 1.912 7.712 5.55v10.798h-3.629v.038Zm-.075-7.162h-4.31c-2.306 0-3.44.825-3.44 2.325 0 1.5 1.058 2.287 3.553 2.287 1.323 0 2.42-.113 3.403-.938.605-.487.831-1.237.831-2.4v-1.274h-.037Z"/>
  <path fill="url(&quot;#paint4_radial&quot;)" d="M98.584 26.795V25.07c-1.398 1.462-2.91 1.912-4.952 1.912-1.89 0-3.554-.525-4.575-1.425-1.814-1.574-2.117-4.162-2.117-6.861 0-2.663.303-5.212 2.118-6.825 1.02-.9 2.646-1.424 4.536-1.424 2.004 0 3.554.412 4.915 1.8V4.11h3.78v22.685h-3.705Zm-3.97-13.461c-3.44 0-3.93 2.475-3.93 5.362s.49 5.399 3.93 5.399c3.403 0 3.895-2.512 3.895-5.4 0-2.886-.492-5.361-3.894-5.361Z"/>
  <path fill="url(&quot;#paint5_radial&quot;)" d="M107.205 7.447v-3.45h4.007v3.45h-4.007Zm.113 19.348V10.634h3.781v16.16h-3.781Z"/>
  <path fill="url(&quot;#paint6_radial&quot;)" d="M126.258 26.795v-1.463c-1.361 1.163-2.646 1.65-4.99 1.65-2.344 0-3.894-.487-5.028-1.462-.945-.863-1.474-2.1-1.474-3.487 0-2.7 2.192-4.65 6.502-4.65h4.915v-1.162c0-2.062-1.134-3.037-4.121-3.037-2.004 0-3.024.45-4.083 1.612l-2.457-2.025c1.739-1.8 3.553-2.362 6.691-2.362 5.18 0 7.712 1.912 7.712 5.55v10.798h-3.667v.038Zm-.075-7.162h-4.31c-2.306 0-3.44.825-3.44 2.325 0 1.5 1.058 2.287 3.553 2.287 1.324 0 2.42-.113 3.403-.938.605-.487.832-1.237.832-2.4v-1.274h-.038Z"/>
  <path fill="url(&quot;#paint7_radial&quot;)" d="M146.258 26.795v-9.862c0-2.512-1.664-3.6-3.781-3.6s-3.894 1.126-3.894 3.6v9.862h-3.78V10.634h3.705v1.612c1.285-1.2 3.1-1.8 4.99-1.8 1.928 0 3.516.526 4.612 1.463 1.437 1.2 1.89 2.737 1.89 4.574v10.312h-3.742Z"/>
  <defs>
    <radialGradient id="paint0_radial" cx="0" cy="0" r="1" gradientTransform="rotate(54.052 -2.583 9.926) scale(38.9287 50.9442)" gradientUnits="userSpaceOnUse">
      <stop stop-color="#96E5AC"/>
      <stop offset=".523" stop-color="#01CAC4"/>
      <stop offset="1" stop-color="#053042"/>
    </radialGradient>
    <radialGradient id="paint1_radial" cx="0" cy="0" r="1" gradientTransform="matrix(16.70792 31.51453 -35.913 19.03984 31.584 6.19)" gradientUnits="userSpaceOnUse">
      <stop stop-color="#96E5AC"/>
      <stop offset=".523" stop-color="#01CAC4"/>
      <stop offset="1" stop-color="#053042"/>
    </radialGradient>
    <radialGradient id="paint2_radial" cx="0" cy="0" r="1" gradientTransform="matrix(16.74634 31.51452 -35.95917 19.10816 50.904 6.19)" gradientUnits="userSpaceOnUse">
      <stop stop-color="#96E5AC"/>
      <stop offset=".523" stop-color="#01CAC4"/>
      <stop offset="1" stop-color="#053042"/>
    </radialGradient>
    <radialGradient id="paint3_radial" cx="0" cy="0" r="1" gradientTransform="matrix(15.3636 23.02386 -29.27159 19.53265 68.386 11.928)" gradientUnits="userSpaceOnUse">
      <stop stop-color="#96E5AC"/>
      <stop offset=".523" stop-color="#01CAC4"/>
      <stop offset="1" stop-color="#053042"/>
    </radialGradient>
    <radialGradient id="paint4_radial" cx="0" cy="0" r="1" gradientTransform="matrix(15.59403 31.77493 -34.60535 16.9831 87.601 6.206)" gradientUnits="userSpaceOnUse">
      <stop stop-color="#96E5AC"/>
      <stop offset=".523" stop-color="#01CAC4"/>
      <stop offset="1" stop-color="#053042"/>
    </radialGradient>
    <radialGradient id="paint5_radial" cx="0" cy="0" r="1" gradientTransform="matrix(4.07134 31.67078 -11.02865 1.41775 107.378 6.087)" gradientUnits="userSpaceOnUse">
      <stop stop-color="#96E5AC"/>
      <stop offset=".523" stop-color="#01CAC4"/>
      <stop offset="1" stop-color="#053042"/>
    </radialGradient>
    <radialGradient id="paint6_radial" cx="0" cy="0" r="1" gradientTransform="rotate(56.219 46.544 114) scale(27.7005 35.251)" gradientUnits="userSpaceOnUse">
      <stop stop-color="#96E5AC"/>
      <stop offset=".523" stop-color="#01CAC4"/>
      <stop offset="1" stop-color="#053042"/>
    </radialGradient>
    <radialGradient id="paint7_radial" cx="0" cy="0" r="1" gradientTransform="matrix(15.4404 22.71134 -29.07736 19.76838 135.457 11.945)" gradientUnits="userSpaceOnUse">
      <stop stop-color="#96E5AC"/>
      <stop offset=".523" stop-color="#01CAC4"/>
      <stop offset="1" stop-color="#053042"/>
    </radialGradient>
    <radialGradient id="paint0_radial" cx="0" cy="0" r="1" gradientTransform="rotate(54.052 -2.583 9.926) scale(38.9287 50.9442)" gradientUnits="userSpaceOnUse">
      <stop stop-color="#96E5AC"/>
      <stop offset=".523" stop-color="#01CAC4"/>
      <stop offset="1" stop-color="#053042"/>
    </radialGradient>
    <radialGradient id="paint1_radial" cx="0" cy="0" r="1" gradientTransform="matrix(16.70792 31.51453 -35.913 19.03984 31.584 6.19)" gradientUnits="userSpaceOnUse">
      <stop stop-color="#96E5AC"/>
      <stop offset=".523" stop-color="#01CAC4"/>
      <stop offset="1" stop-color="#053042"/>
    </radialGradient>
    <radialGradient id="paint2_radial" cx="0" cy="0" r="1" gradientTransform="matrix(16.74634 31.51452 -35.95917 19.10816 50.904 6.19)" gradientUnits="userSpaceOnUse">
      <stop stop-color="#96E5AC"/>
      <stop offset=".523" stop-color="#01CAC4"/>
      <stop offset="1" stop-color="#053042"/>
    </radialGradient>
    <radialGradient id="paint3_radial" cx="0" cy="0" r="1" gradientTransform="matrix(15.3636 23.02386 -29.27159 19.53265 68.386 11.928)" gradientUnits="userSpaceOnUse">
      <stop stop-color="#96E5AC"/>
      <stop offset=".523" stop-color="#01CAC4"/>
      <stop offset="1" stop-color="#053042"/>
    </radialGradient>
    <radialGradient id="paint4_radial" cx="0" cy="0" r="1" gradientTransform="matrix(15.59403 31.77493 -34.60535 16.9831 87.601 6.206)" gradientUnits="userSpaceOnUse">
      <stop stop-color="#96E5AC"/>
      <stop offset=".523" stop-color="#01CAC4"/>
      <stop offset="1" stop-color="#053042"/>
    </radialGradient>
    <radialGradient id="paint5_radial" cx="0" cy="0" r="1" gradientTransform="matrix(4.07134 31.67078 -11.02865 1.41775 107.378 6.087)" gradientUnits="userSpaceOnUse">
      <stop stop-color="#96E5AC"/>
      <stop offset=".523" stop-color="#01CAC4"/>
      <stop offset="1" stop-color="#053042"/>
    </radialGradient>
    <radialGradient id="paint6_radial" cx="0" cy="0" r="1" gradientTransform="rotate(56.219 46.544 114) scale(27.7005 35.251)" gradientUnits="userSpaceOnUse">
      <stop stop-color="#96E5AC"/>
      <stop offset=".523" stop-color="#01CAC4"/>
      <stop offset="1" stop-color="#053042"/>
    </radialGradient>
    <radialGradient id="paint7_radial" cx="0" cy="0" r="1" gradientTransform="matrix(15.4404 22.71134 -29.07736 19.76838 135.457 11.945)" gradientUnits="userSpaceOnUse">
      <stop stop-color="#96E5AC"/>
      <stop offset=".523" stop-color="#01CAC4"/>
      <stop offset="1" stop-color="#053042"/>
    </radialGradient>
  </defs>
</svg>
