<svg width="1177" height="949" viewBox="0 0 1177 949" fill="none" xmlns="http://www.w3.org/2000/svg">
<g opacity="0.2">
<g filter="url(#filter0_f_2362_749)">
<path fill-rule="evenodd" clip-rule="evenodd" d="M735.704 667.128L731.97 669.146L728.188 671.153L724.36 673.149L720.488 675.133L716.573 677.102L712.617 679.055L708.621 680.992L704.587 682.911L700.517 684.81L696.413 686.689L692.277 688.545L688.11 690.377L683.916 692.185L679.695 693.966L675.451 695.72L671.185 697.445L666.901 699.14L662.6 700.804L658.284 702.434L653.957 704.031L649.621 705.593L645.279 707.119L640.932 708.607L636.584 710.056L632.237 711.466L627.893 712.836L623.557 714.164L619.229 715.45L614.913 716.692L610.611 717.89L606.326 719.044L602.061 720.153L597.817 721.215L593.598 722.23L589.406 723.199L585.243 724.12L581.112 724.993L577.014 725.818L572.953 726.594L568.93 727.322L564.948 728L561.008 728.629L557.113 729.21L553.265 729.74L549.465 730.222L545.714 730.655L542.016 731.04L538.37 731.376L534.779 731.665L531.242 731.907L527.762 732.103L524.338 732.254L520.972 732.36L517.664 732.423L514.413 732.444L511.221 732.424L508.087 732.364L505.01 732.266L501.99 732.132L499.026 731.961L496.118 731.757L493.264 731.521L490.464 731.254L487.716 730.958L485.018 730.635L482.369 730.287L479.767 729.914L477.211 729.52L474.698 729.105L472.227 728.671L469.795 728.22L467.4 727.753L465.04 727.273L462.713 726.78L460.416 726.276L458.148 725.763L455.906 725.241L453.688 724.712L451.492 724.176L449.316 723.636L447.157 723.092L445.015 722.545L442.887 721.995L440.772 721.442L438.668 720.889L436.574 720.334L434.489 719.778L432.413 719.221L430.344 718.663L428.282 718.103L426.226 717.543L424.178 716.98L422.138 716.413L420.107 715.843L418.087 715.268L416.079 714.685L414.086 714.095L412.11 713.494L410.156 712.882L408.226 712.256L406.323 711.614L404.453 710.955L402.619 710.275L400.827 709.573L399.08 708.847L397.384 708.094L395.745 707.313L394.167 706.5L392.655 705.655L391.217 704.774L389.856 703.857L388.578 702.9L387.39 701.904L386.295 700.865L385.3 699.783L384.41 698.656L383.629 697.483L382.962 696.264L382.413 694.998L381.986 693.683L381.685 692.321L381.513 690.911L381.474 689.452L381.568 687.946L381.799 686.394L382.168 684.795L382.675 683.151L383.32 681.464L384.104 679.735L385.026 677.965L386.084 676.157L387.277 674.313L388.603 672.434L390.06 670.522L391.646 668.581L393.357 666.611L395.19 664.617L397.142 662.599L399.209 660.561L401.387 658.505L403.671 656.433L406.056 654.349L408.539 652.254L411.113 650.152L413.773 648.045L416.514 645.935L419.33 643.824L422.216 641.717L425.165 639.614L428.171 637.518L431.228 635.431L434.331 633.356L437.472 631.294L440.646 629.248L443.847 627.219L447.069 625.21L450.305 623.221L453.551 621.255L456.799 619.312L460.044 617.395L463.282 615.504L466.506 613.64L469.711 611.804L472.893 609.997L476.048 608.219L479.169 606.472L482.255 604.754L485.3 603.067L488.301 601.411L491.254 599.785L494.158 598.189L497.008 596.623L499.804 595.087L502.542 593.579L505.221 592.1L507.84 590.649L510.398 589.224L512.894 587.825L515.327 586.451L517.698 585.101L520.008 583.773L522.257 582.466L524.446 581.18L526.578 579.913L528.653 578.663L530.674 577.429L532.644 576.21L534.564 575.005L536.438 573.812L538.268 572.63L540.057 571.459L541.81 570.295L543.529 569.14L545.216 567.991L546.877 566.848L548.514 565.71L550.13 564.575L551.73 563.444L553.315 562.315L554.89 561.188L556.457 560.062L558.02 558.937L559.581 557.813L561.143 556.689L562.709 555.565L564.28 554.44L565.86 553.316L567.449 552.191L569.05 551.066L570.663 549.94L572.291 548.815L573.934 547.689L575.592 546.564L577.267 545.438L578.958 544.313L580.666 543.189L582.391 542.065L584.132 540.941L585.89 539.819L587.663 538.697L589.453 537.576L591.258 536.455L593.078 535.336L594.913 534.217L596.763 533.1L598.626 531.983L600.504 530.866L602.394 529.75L604.297 528.635L606.213 527.52L608.141 526.405L610.081 525.289L612.033 524.174L613.995 523.057L615.969 521.94L617.954 520.821L619.95 519.701L621.957 518.578L623.975 517.453L626.004 516.326L628.044 515.196L630.096 514.062L632.159 512.924L634.235 511.782L636.323 510.636L638.424 509.484L640.538 508.328L642.666 507.166L644.809 505.998L646.967 504.824L649.142 503.644L651.332 502.457L653.54 501.264L655.766 500.064L658.011 498.858L660.276 497.644L662.56 496.424L664.866 495.197L667.194 493.963L669.544 492.724L671.917 491.478L674.314 490.226L676.735 488.968L679.181 487.706L681.653 486.439L684.15 485.169L686.673 483.895L689.222 482.619L691.798 481.342L694.4 480.065L697.029 478.789L699.683 477.516L702.363 476.246L705.068 474.981L707.798 473.723L710.551 472.474L713.327 471.234L716.123 470.005L718.94 468.79L721.776 467.59L724.628 466.406L727.496 465.241L730.377 464.096L733.269 462.974L736.171 461.874L739.079 460.801L741.992 459.754L744.908 458.737L747.823 457.749L750.735 456.794L753.642 455.871L756.54 454.984L759.428 454.132L762.303 453.318L765.161 452.541L768.001 451.805L770.819 451.108L773.613 450.453L776.381 449.839L779.119 449.269L781.826 448.741L784.5 448.257L787.137 447.817L789.735 447.421L792.293 447.069L794.809 446.762L797.281 446.498L799.708 446.277L802.088 446.1L804.42 445.964L806.704 445.87L808.938 445.816L811.123 445.801L813.258 445.824L815.344 445.882L817.381 445.976L819.368 446.102L821.308 446.26L823.201 446.447L825.049 446.661L826.853 446.901L828.615 447.164L830.336 447.448L832.02 447.751L833.668 448.071L835.282 448.405L836.867 448.751L838.424 449.107L839.956 449.471L841.468 449.84L842.96 450.213L844.438 450.586L845.905 450.959L847.363 451.329L848.816 451.695L850.267 452.054L851.721 452.404L853.18 452.745L854.647 453.075L856.126 453.392L857.619 453.695L859.13 453.984L860.661 454.257L862.215 454.514L863.794 454.753L865.401 454.975L867.037 455.18L868.705 455.366L870.405 455.535L872.14 455.686L873.909 455.821L875.713 455.938L877.553 456.041L879.428 456.129L881.336 456.204L883.276 456.268L885.247 456.322L887.247 456.369L889.271 456.411L891.318 456.449L893.384 456.487L895.464 456.526L897.556 456.57L899.654 456.62L901.753 456.68L903.85 456.752L905.938 456.839L908.012 456.942L910.068 457.066L912.098 457.212L914.098 457.383L916.063 457.581L917.985 457.809L919.861 458.068L921.683 458.36L923.448 458.688L925.149 459.053L926.781 459.457L928.34 459.9L929.821 460.385L931.219 460.911L932.531 461.481L933.754 462.094L934.882 462.75L935.915 463.451L936.849 464.195L937.681 464.982L938.412 465.813L939.039 466.686L939.562 467.601L939.98 468.557L940.293 469.552L940.502 470.585L940.607 471.655L940.609 472.761L940.51 473.901L940.31 475.074L940.011 476.278L939.617 477.511L939.128 478.771L938.549 480.057L937.881 481.366L937.128 482.697L936.293 484.049L935.381 485.418L934.393 486.804L933.336 488.203L932.211 489.615L931.025 491.038L929.78 492.469L928.482 493.908L927.134 495.351L925.742 496.799L924.309 498.248L922.841 499.698L921.341 501.147L919.813 502.595L918.263 504.038L916.695 505.478L915.112 506.912L913.518 508.339L911.918 509.759L910.315 511.171L908.713 512.575L907.115 513.969L905.525 515.354L903.944 516.729L902.377 518.094L900.825 519.449L899.29 520.794L897.776 522.129L896.283 523.454L894.814 524.77L893.369 526.077L891.95 527.374L890.557 528.664L889.192 529.946L887.853 531.222L886.543 532.491L885.26 533.754L884.004 535.013L882.775 536.268L881.574 537.52L880.398 538.77L879.247 540.019L878.12 541.267L877.016 542.516L875.933 543.767L874.87 545.021L873.825 546.277L872.796 547.539L871.782 548.806L870.78 550.079L869.788 551.36L868.804 552.649L867.826 553.948L866.852 555.256L865.878 556.575L864.903 557.905L863.923 559.248L862.937 560.603L861.943 561.973L860.936 563.356L859.916 564.754L858.88 566.168L857.825 567.597L856.75 569.042L855.651 570.504L854.527 571.982L853.376 573.478L852.195 574.991L850.984 576.521L849.74 578.069L848.461 579.635L847.146 581.219L845.794 582.821L844.403 584.442L842.971 586.08L841.498 587.736L839.982 589.411L838.421 591.103L836.816 592.814L835.163 594.542L833.464 596.288L831.715 598.051L829.917 599.832L828.068 601.629L826.168 603.443L824.216 605.274L822.21 607.12L820.151 608.982L818.037 610.86L815.868 612.752L813.643 614.659L811.362 616.58L809.024 618.514L806.629 620.461L804.177 622.421L801.667 624.392L799.099 626.375L796.473 628.367L793.788 630.37L791.045 632.382L788.244 634.402L785.384 636.429L782.466 638.464L779.489 640.504L776.455 642.549L773.363 644.598L770.214 646.651L767.008 648.706L763.746 650.762L760.428 652.819L757.055 654.874L753.627 656.928L750.146 658.978L746.612 661.025L743.027 663.066L739.39 665.101L735.704 667.128Z" fill="#7209B8"/>
</g>
<g filter="url(#filter1_f_2362_749)">
<path fill-rule="evenodd" clip-rule="evenodd" d="M392.075 578.545V578.545L391.263 580.994L390.435 583.416L389.592 585.812L388.736 588.181L387.869 590.525L386.992 592.843L386.107 595.137L385.217 597.406L384.323 599.652L383.428 601.876L382.533 604.078L381.641 606.261L380.754 608.425L379.874 610.571L379.004 612.702L378.144 614.819L377.297 616.924L376.464 619.019L375.648 621.106L374.849 623.187L374.069 625.264L373.309 627.34L372.571 629.416L371.854 631.495L371.16 633.579L370.489 635.671L369.841 637.773L369.216 639.887L368.615 642.015L368.037 644.16L367.482 646.323L366.948 648.508L366.436 650.715L365.945 652.947L365.473 655.205L365.019 657.492L364.583 659.809L364.162 662.157L363.755 664.539L363.361 666.955L362.977 669.406L362.601 671.892L362.232 674.416L361.866 676.976L361.5 679.574L361.134 682.208L360.762 684.879L360.384 687.585L359.995 690.326L359.592 693.101L359.174 695.909L358.736 698.747L358.276 701.614L357.79 704.507L357.275 707.424L356.73 710.363L356.149 713.321L355.532 716.293L354.874 719.278L354.174 722.272L353.429 725.271L352.637 728.271L351.794 731.268L350.9 734.258L349.952 737.237L348.948 740.201L347.888 743.145L346.769 746.065L345.59 748.957L344.352 751.815L343.051 754.636L341.69 757.415L340.266 760.148L338.779 762.83L337.231 765.457L335.621 768.026L333.95 770.531L332.218 772.97L330.427 775.338L328.577 777.633L326.67 779.85L324.708 781.986L322.691 784.038L320.621 786.003L318.5 787.878L316.331 789.66L314.114 791.346L311.853 792.934L309.549 794.422L307.205 795.808L304.824 797.089L302.408 798.264L299.959 799.332L297.481 800.291L294.975 801.141L292.446 801.881L289.895 802.511L287.327 803.03L284.743 803.438L282.146 803.735L279.54 803.923L276.927 804.001L274.311 803.97L271.693 803.832L269.078 803.587L266.467 803.236L263.863 802.782L261.269 802.224L258.688 801.566L256.121 800.807L253.572 799.95L251.043 798.996L248.536 797.947L246.053 796.804L243.597 795.567L241.17 794.24L238.774 792.824L236.411 791.32L234.083 789.731L231.792 788.06L229.539 786.308L227.327 784.479L225.158 782.575L223.032 780.6L220.951 778.556L218.917 776.446L216.93 774.275L214.992 772.044L213.103 769.759L211.265 767.422L209.478 765.038L207.742 762.609L206.058 760.14L204.427 757.635L202.847 755.097L201.32 752.53L199.845 749.939L198.421 747.326L197.049 744.697L195.727 742.054L194.455 739.401L193.231 736.743L192.056 734.083L190.928 731.423L189.845 728.769L188.806 726.122L187.81 723.487L186.855 720.865L185.94 718.262L185.063 715.678L184.221 713.117L183.414 710.581L182.639 708.073L181.894 705.595L181.177 703.148L180.487 700.735L179.821 698.357L179.177 696.015L178.553 693.711L177.947 691.446L177.358 689.219L176.783 687.032L176.221 684.884L175.67 682.776L175.129 680.708L174.595 678.678L174.068 676.688L173.546 674.735L173.029 672.819L172.514 670.939L172.001 669.094L171.489 667.283L170.977 665.505L170.464 663.758L169.95 662.041L169.434 660.352L168.916 658.69L168.396 657.054L167.872 655.441L167.346 653.851L166.816 652.282L166.282 650.732L165.746 649.2L165.206 647.684L164.662 646.183L164.115 644.696L163.565 643.221L163.012 641.757L162.455 640.303L161.894 638.859L161.33 637.422L160.763 635.992L160.192 634.567L159.617 633.148L159.04 631.732L158.46 630.319L157.878 628.907L157.294 627.495L156.709 626.082L156.125 624.668L155.542 623.25L154.961 621.828L154.383 620.401L153.81 618.967L153.242 617.527L152.683 616.079L152.132 614.622L151.592 613.155L151.064 611.679L150.55 610.193L150.051 608.696L149.57 607.188L149.109 605.669L148.668 604.139L148.25 602.597L147.857 601.045L147.49 599.482L147.151 597.909L146.842 596.327L146.564 594.735L146.318 593.136L146.106 591.529L145.93 589.916L145.789 588.298L145.686 586.675L145.621 585.05L145.594 583.423L145.606 581.796L145.658 580.169L145.749 578.545L145.88 576.925L146.05 575.31L146.259 573.701L146.505 572.099L146.79 570.507L147.111 568.925L147.468 567.354L147.86 565.795L148.287 564.25L148.747 562.72L149.24 561.205L149.764 559.706L150.317 558.224L150.899 556.761L151.509 555.316L152.143 553.889L152.802 552.482L153.483 551.095L154.184 549.727L154.903 548.378L155.639 547.05L156.39 545.74L157.154 544.45L157.928 543.177L158.711 541.923L159.5 540.685L160.295 539.464L161.093 538.257L161.893 537.065L162.692 535.886L163.49 534.718L164.286 533.561L165.077 532.414L165.864 531.275L166.645 530.142L167.421 529.017L168.19 527.896L168.953 526.779L169.71 525.666L170.461 524.556L171.206 523.448L171.945 522.341L172.678 521.234L173.406 520.127L174.129 519.02L174.848 517.911L175.563 516.801L176.274 515.688L176.983 514.573L177.69 513.455L178.395 512.335L179.1 511.211L179.804 510.085L180.51 508.956L181.218 507.825L181.929 506.691L182.643 505.556L183.362 504.419L184.086 503.281L184.817 502.143L185.555 501.006L186.302 499.871L187.057 498.737L187.822 497.607L188.598 496.481L189.385 495.36L190.185 494.245L190.996 493.137L191.822 492.038L192.66 490.948L193.513 489.868L194.381 488.799L195.263 487.743L196.16 486.7L197.072 485.671L197.999 484.657L198.942 483.658L199.899 482.676L200.871 481.71L201.859 480.762L202.86 479.83L203.876 478.915L204.904 478.017L205.946 477.134L207 476.265L208.065 475.409L209.14 474.563L210.226 473.726L211.321 472.896L212.424 472.068L213.535 471.242L214.654 470.413L215.781 469.579L216.914 468.737L218.055 467.883L219.203 467.013L220.358 466.126L221.521 465.216L222.692 464.282L223.873 463.319L225.063 462.326L226.264 461.298L227.478 460.234L228.705 459.132L229.947 457.989L231.206 456.804L232.484 455.574L233.781 454.301L235.101 452.982L236.445 451.618L237.815 450.21L239.214 448.758L240.642 447.264L242.103 445.73L243.597 444.158L245.128 442.551L246.695 440.912L248.302 439.245L249.95 437.553L251.639 435.839L253.371 434.108L255.147 432.363L256.967 430.61L258.833 428.853L260.745 427.096L262.704 425.344L264.708 423.602L266.758 421.876L268.855 420.171L270.996 418.491L273.182 416.841L275.411 415.228L277.683 413.656L279.996 412.13L282.348 410.656L284.738 409.238L287.164 407.882L289.623 406.591L292.114 405.371L294.633 404.226L297.179 403.16L299.748 402.177L302.338 401.281L304.946 400.475L307.569 399.764L310.203 399.149L312.845 398.633L315.492 398.22L318.141 397.91L320.788 397.706L323.431 397.609L326.065 397.621L328.687 397.743L331.295 397.974L333.884 398.315L336.452 398.766L338.996 399.327L341.513 399.997L344 400.776L346.453 401.661L348.871 402.652L351.251 403.748L353.59 404.946L355.886 406.245L358.136 407.642L360.339 409.135L362.493 410.721L364.596 412.398L366.646 414.163L368.643 416.013L370.584 417.944L372.47 419.954L374.298 422.038L376.069 424.194L377.781 426.418L379.435 428.707L381.031 431.057L382.567 433.464L384.045 435.926L385.464 438.438L386.825 440.998L388.128 443.602L389.374 446.246L390.562 448.928L391.693 451.645L392.769 454.395L393.789 457.173L394.753 459.978L395.663 462.808L396.517 465.66L397.318 468.532L398.064 471.422L398.756 474.328L399.394 477.248L399.979 480.181L400.511 483.124L400.991 486.075L401.418 489.033L401.793 491.995L402.118 494.961L402.392 497.928L402.615 500.895L402.79 503.86L402.915 506.821L402.993 509.778L403.023 512.728L403.007 515.67L402.945 518.603L402.838 521.525L402.687 524.435L402.493 527.332L402.257 530.214L401.979 533.081L401.662 535.931L401.304 538.763L400.909 541.576L400.477 544.369L400.009 547.142L399.507 549.893L398.971 552.621L398.403 555.327L397.804 558.008L397.176 560.665L396.52 563.298L395.837 565.904L395.129 568.485L394.398 571.04L393.644 573.568L392.869 576.07L392.075 578.545" fill="#F8DA4B"/>
</g>
<g filter="url(#filter2_f_2362_749)">
<path fill-rule="evenodd" clip-rule="evenodd" d="M1102.72 365.305V365.305L1102.41 367.826L1102 370.34L1101.48 372.842L1100.85 375.33L1100.11 377.801L1099.28 380.252L1098.34 382.682L1097.31 385.087L1096.19 387.465L1094.97 389.814L1093.66 392.131L1092.27 394.416L1090.8 396.666L1089.26 398.879L1087.64 401.054L1085.95 403.191L1084.21 405.288L1082.4 407.343L1080.54 409.358L1078.63 411.33L1076.67 413.26L1074.67 415.147L1072.63 416.991L1070.56 418.791L1068.45 420.548L1066.32 422.262L1064.16 423.932L1061.97 425.559L1059.77 427.143L1057.54 428.685L1055.3 430.184L1053.05 431.641L1050.78 433.056L1048.51 434.429L1046.22 435.761L1043.93 437.053L1041.63 438.304L1039.33 439.516L1037.03 440.688L1034.73 441.822L1032.43 442.918L1030.13 443.976L1027.83 444.998L1025.55 445.985L1023.27 446.937L1021 447.856L1018.74 448.742L1016.49 449.597L1014.26 450.422L1012.04 451.219L1009.84 451.988L1007.65 452.731L1005.49 453.449L1003.35 454.144L1001.23 454.818L999.133 455.472L997.062 456.108L995.017 456.727L992.998 457.331L991.007 457.922L989.046 458.502L987.114 459.072L985.213 459.636L983.344 460.194L981.508 460.748L979.705 461.302L977.936 461.857L976.202 462.415L974.503 462.979L972.84 463.551L971.213 464.133L969.624 464.728L968.071 465.338L966.555 465.965L965.077 466.613L963.636 467.283L962.232 467.977L960.866 468.7L959.536 469.451L958.243 470.235L956.986 471.053L955.764 471.908L954.577 472.802L953.423 473.737L952.302 474.715L951.213 475.738L950.153 476.808L949.123 477.927L948.12 479.096L947.142 480.316L946.188 481.59L945.256 482.917L944.344 484.299L943.45 485.736L942.571 487.23L941.705 488.779L940.85 490.386L940.003 492.048L939.162 493.766L938.324 495.54L937.487 497.368L936.647 499.249L935.801 501.182L934.948 503.166L934.085 505.199L933.208 507.279L932.315 509.403L931.404 511.57L930.472 513.777L929.516 516.021L928.533 518.3L927.523 520.61L926.481 522.948L925.407 525.311L924.297 527.695L923.151 530.096L921.965 532.509L920.738 534.93L919.468 537.355L918.153 539.776L916.792 542.19L915.384 544.59L913.928 546.971L912.422 549.326L910.866 551.649L909.26 553.934L907.603 556.174L905.895 558.363L904.137 560.494L902.328 562.562L900.471 564.559L898.565 566.479L896.613 568.316L894.616 570.064L892.575 571.717L890.493 573.271L888.373 574.72L886.216 576.059L884.026 577.284L881.806 578.392L879.558 579.38L877.286 580.243L874.994 580.981L872.685 581.591L870.362 582.071L868.03 582.42L865.692 582.639L863.351 582.726L861.011 582.683L858.676 582.51L856.35 582.209L854.035 581.78L851.736 581.228L849.456 580.554L847.198 579.762L844.964 578.855L842.757 577.837L840.581 576.713L838.437 575.488L836.328 574.166L834.255 572.754L832.22 571.258L830.224 569.683L828.268 568.035L826.353 566.323L824.479 564.551L822.647 562.728L820.855 560.861L819.104 558.956L817.392 557.021L815.719 555.064L814.082 553.091L812.48 551.11L810.911 549.127L809.373 547.151L807.862 545.187L806.376 543.242L804.912 541.323L803.466 539.435L802.035 537.585L800.615 535.778L799.202 534.019L797.793 532.312L796.383 530.663L794.969 529.074L793.546 527.55L792.11 526.093L790.657 524.705L789.183 523.389L787.683 522.147L786.156 520.979L784.595 519.885L782.999 518.867L781.364 517.922L779.686 517.051L777.963 516.252L776.192 515.523L774.371 514.861L772.498 514.265L770.571 513.731L768.589 513.255L766.551 512.833L764.457 512.462L762.305 512.136L760.097 511.852L757.833 511.604L755.512 511.387L753.138 511.195L750.711 511.024L748.233 510.868L745.706 510.721L743.134 510.576L740.519 510.429L737.866 510.274L735.178 510.103L732.46 509.911L729.717 509.691L726.955 509.438L724.179 509.146L721.395 508.808L718.61 508.419L715.83 507.974L713.062 507.467L710.312 506.895L707.588 506.253L704.896 505.537L702.243 504.744L699.636 503.871L697.081 502.916L694.585 501.877L692.153 500.752L689.792 499.54L687.509 498.24L685.308 496.852L683.197 495.377L681.179 493.813L679.261 492.163L677.447 490.427L675.742 488.606L674.15 486.704L672.674 484.721L671.319 482.662L670.086 480.528L668.98 478.322L668.001 476.05L667.151 473.713L666.432 471.317L665.843 468.865L665.385 466.362L665.058 463.813L664.861 461.222L664.792 458.595L664.848 455.935L665.028 453.249L665.328 450.541L665.745 447.816L666.275 445.079L666.913 442.335L667.653 439.59L668.492 436.847L669.422 434.111L670.437 431.387L671.531 428.68L672.696 425.992L673.926 423.327L675.212 420.69L676.548 418.083L677.924 415.51L679.334 412.972L680.767 410.472L682.217 408.013L683.676 405.595L685.133 403.219L686.582 400.887L688.014 398.6L689.421 396.356L690.796 394.156L692.13 392L693.416 389.886L694.648 387.813L695.819 385.78L696.921 383.784L697.951 381.824L698.901 379.897L699.767 378L700.544 376.131L701.229 374.286L701.817 372.462L702.307 370.655L702.695 368.863L702.98 367.08L703.161 365.305L703.237 363.532L703.208 361.758L703.074 359.979L702.838 358.192L702.499 356.392L702.062 354.577L701.528 352.742L700.902 350.885L700.186 349.003L699.386 347.092L698.506 345.149L697.552 343.173L696.529 341.162L695.444 339.113L694.304 337.024L693.115 334.896L691.884 332.726L690.619 330.514L689.326 328.26L688.013 325.963L686.687 323.624L685.356 321.244L684.025 318.823L682.702 316.361L681.393 313.862L680.105 311.325L678.844 308.752L677.615 306.146L676.426 303.509L675.28 300.842L674.184 298.148L673.141 295.43L672.155 292.689L671.231 289.928L670.372 287.15L669.58 284.358L668.86 281.554L668.213 278.741L667.643 275.921L667.152 273.098L666.743 270.276L666.418 267.456L666.178 264.642L666.026 261.838L665.963 259.046L665.99 256.27L666.109 253.512L666.319 250.777L666.622 248.066L667.019 245.383L667.508 242.73L668.091 240.112L668.766 237.53L669.532 234.987L670.39 232.486L671.338 230.028L672.375 227.618L673.499 225.255L674.708 222.943L676.001 220.683L677.375 218.477L678.828 216.326L680.357 214.231L681.96 212.193L683.635 210.214L685.377 208.294L687.184 206.432L689.054 204.63L690.982 202.887L692.965 201.203L694.999 199.577L697.082 198.009L699.21 196.497L701.379 195.041L703.586 193.639L705.826 192.29L708.098 190.992L710.396 189.742L712.719 188.539L715.061 187.381L717.421 186.265L719.795 185.188L722.181 184.149L724.574 183.144L726.973 182.17L729.375 181.226L731.778 180.307L734.179 179.411L736.577 178.536L738.969 177.677L741.354 176.834L743.731 176.002L746.098 175.18L748.454 174.364L750.799 173.553L753.133 172.745L755.454 171.936L757.762 171.127L760.059 170.314L762.343 169.496L764.615 168.674L766.876 167.844L769.126 167.008L771.366 166.164L773.598 165.312L775.822 164.453L778.039 163.586L780.251 162.713L782.458 161.833L784.662 160.948L786.864 160.059L789.065 159.168L791.267 158.275L793.471 157.383L795.678 156.494L797.89 155.61L800.107 154.734L802.332 153.871L804.564 153.022L806.807 152.194L809.059 151.389L811.323 150.612L813.6 149.867L815.888 149.16L818.19 148.495L820.505 147.875L822.832 147.306L825.173 146.791L827.525 146.335L829.888 145.94L832.262 145.611L834.644 145.35L837.035 145.159L839.431 145.042L841.833 145L844.238 145.036L846.644 145.152L849.05 145.351L851.453 145.632L853.852 145.999L856.245 146.452L858.628 146.992L861.001 147.619L863.36 148.335L865.704 149.14L868.03 150.032L870.336 151.012L872.619 152.078L874.878 153.23L877.11 154.466L879.313 155.784L881.485 157.183L883.624 158.658L885.728 160.209L887.796 161.832L889.825 163.523L891.816 165.279L893.765 167.097L895.673 168.972L897.538 170.9L899.359 172.877L901.137 174.899L902.87 176.961L904.559 179.058L906.204 181.185L907.804 183.338L909.361 185.511L910.874 187.701L912.346 189.901L913.776 192.108L915.167 194.315L916.519 196.52L917.835 198.716L919.115 200.9L920.362 203.067L921.578 205.214L922.766 207.335L923.926 209.428L925.063 211.488L926.177 213.512L927.273 215.498L928.351 217.442L929.417 219.342L930.471 221.194L931.516 222.998L932.556 224.751L933.593 226.451L934.631 228.098L935.67 229.69L936.715 231.227L937.768 232.708L938.831 234.132L939.906 235.5L940.997 236.812L942.105 238.069L943.232 239.272L944.38 240.421L945.551 241.517L946.747 242.564L947.969 243.561L949.218 244.512L950.496 245.417L951.802 246.281L953.139 247.105L954.505 247.893L955.901 248.647L957.327 249.37L958.783 250.066L960.268 250.739L961.78 251.391L963.32 252.026L964.885 252.649L966.475 253.261L968.088 253.866L969.724 254.467L971.381 255.066L973.058 255.665L974.755 256.266L976.471 256.872L978.205 257.483L979.957 258.102L981.727 258.729L983.513 259.365L985.316 260.012L987.137 260.67L988.974 261.34L990.829 262.022L992.702 262.716L994.593 263.423L996.504 264.144L998.435 264.877L1000.39 265.624L1002.36 266.384L1004.36 267.16L1006.37 267.95L1008.41 268.755L1010.48 269.577L1012.56 270.416L1014.67 271.273L1016.81 272.149L1018.96 273.044L1021.14 273.961L1023.34 274.9L1025.56 275.863L1027.8 276.851L1030.06 277.864L1032.33 278.906L1034.62 279.977L1036.93 281.078L1039.24 282.211L1041.56 283.378L1043.9 284.58L1046.23 285.818L1048.57 287.093L1050.9 288.408L1053.23 289.763L1055.55 291.159L1057.86 292.597L1060.15 294.079L1062.43 295.605L1064.68 297.176L1066.91 298.792L1069.1 300.455L1071.27 302.163L1073.39 303.918L1075.47 305.72L1077.5 307.568L1079.48 309.462L1081.41 311.402L1083.28 313.386L1085.09 315.415L1086.83 317.488L1088.5 319.602L1090.09 321.758L1091.61 323.953L1093.04 326.187L1094.39 328.456L1095.65 330.76L1096.82 333.097L1097.9 335.463L1098.88 337.858L1099.76 340.279L1100.54 342.722L1101.21 345.186L1101.78 347.668L1102.24 350.166L1102.6 352.675L1102.84 355.194L1102.98 357.719L1103 360.248L1102.91 362.778L1102.72 365.305" fill="#1BE6FF"/>
</g>
</g>
<defs>
<filter id="filter0_f_2362_749" x="236.85" y="301.178" width="848.382" height="575.889" filterUnits="userSpaceOnUse" color-interpolation-filters="sRGB">
<feFlood flood-opacity="0" result="BackgroundImageFix"/>
<feBlend mode="normal" in="SourceGraphic" in2="BackgroundImageFix" result="shape"/>
<feGaussianBlur stdDeviation="72.3116" result="effect1_foregroundBlur_2362_749"/>
</filter>
<filter id="filter1_f_2362_749" x="0.970734" y="252.986" width="546.676" height="695.637" filterUnits="userSpaceOnUse" color-interpolation-filters="sRGB">
<feFlood flood-opacity="0" result="BackgroundImageFix"/>
<feBlend mode="normal" in="SourceGraphic" in2="BackgroundImageFix" result="shape"/>
<feGaussianBlur stdDeviation="72.3116" result="effect1_foregroundBlur_2362_749"/>
</filter>
<filter id="filter2_f_2362_749" x="520.168" y="0.37674" width="727.455" height="726.973" filterUnits="userSpaceOnUse" color-interpolation-filters="sRGB">
<feFlood flood-opacity="0" result="BackgroundImageFix"/>
<feBlend mode="normal" in="SourceGraphic" in2="BackgroundImageFix" result="shape"/>
<feGaussianBlur stdDeviation="72.3116" result="effect1_foregroundBlur_2362_749"/>
</filter>
</defs>
</svg>
