<svg width="48" height="48" viewBox="0 0 48 48" fill="none" xmlns="http://www.w3.org/2000/svg">
<rect x="3" y="1" width="22" height="22" rx="1.83333" fill="url(#paint0_linear_6510_23918)"/>
<rect x="3" y="1" width="22" height="22" rx="1.83333" fill="url(#paint1_linear_6510_23918)"/>
<rect x="3" y="1" width="22" height="22" rx="1.83333" fill="url(#paint2_linear_6510_23918)"/>
<path d="M5.19971 21.9001C5.19971 17.04 9.1396 13.1001 13.9997 13.1001C18.8598 13.1001 22.7997 17.04 22.7997 21.9001V23.0001H5.19971V21.9001Z" fill="url(#paint3_linear_6510_23918)"/>
<path d="M5.19971 21.9001C5.19971 17.04 9.1396 13.1001 13.9997 13.1001C18.8598 13.1001 22.7997 17.04 22.7997 21.9001V23.0001H5.19971V21.9001Z" fill="url(#paint4_linear_6510_23918)"/>
<path d="M8.4998 10.9001C8.4998 7.86258 10.9622 5.40015 13.9998 5.40015C17.0374 5.40015 19.4998 7.86258 19.4998 10.9001C19.4998 13.9377 17.0374 16.4001 13.9998 16.4001C10.9622 16.4001 8.4998 13.9377 8.4998 10.9001Z" fill="url(#paint5_linear_6510_23918)"/>
<path d="M8.4998 10.9001C8.4998 7.86258 10.9622 5.40015 13.9998 5.40015C17.0374 5.40015 19.4998 7.86258 19.4998 10.9001C19.4998 13.9377 17.0374 16.4001 13.9998 16.4001C10.9622 16.4001 8.4998 13.9377 8.4998 10.9001Z" fill="url(#paint6_linear_6510_23918)"/>
<rect x="15" y="17" width="29.8" height="29.8" rx="2.12857" fill="url(#paint7_linear_6510_23918)"/>
<rect x="15" y="17" width="29.8" height="29.8" rx="2.12857" fill="url(#paint8_linear_6510_23918)"/>
<rect x="15" y="17" width="29.8" height="29.8" rx="2.12857" fill="url(#paint9_linear_6510_23918)"/>
<path d="M17.9805 45.3101C17.9805 38.7269 23.3172 33.3901 29.9005 33.3901V33.3901C36.4837 33.3901 41.8205 38.7269 41.8205 45.3101V46.8002H17.9805V45.3101Z" fill="url(#paint10_linear_6510_23918)"/>
<path d="M17.9805 45.3101C17.9805 38.7269 23.3172 33.3901 29.9005 33.3901V33.3901C36.4837 33.3901 41.8205 38.7269 41.8205 45.3101V46.8002H17.9805V45.3101Z" fill="url(#paint11_linear_6510_23918)"/>
<path d="M17.9805 45.3101C17.9805 38.7269 23.3172 33.3901 29.9005 33.3901V33.3901C36.4837 33.3901 41.8205 38.7269 41.8205 45.3101V46.8002H17.9805V45.3101Z" fill="url(#paint12_linear_6510_23918)"/>
<rect x="22.45" y="22.9601" width="14.9" height="14.9" rx="7.45" fill="url(#paint13_linear_6510_23918)"/>
<rect x="22.45" y="22.9601" width="14.9" height="14.9" rx="7.45" fill="url(#paint14_linear_6510_23918)"/>
<rect x="22.45" y="22.9601" width="14.9" height="14.9" rx="7.45" fill="url(#paint15_linear_6510_23918)"/>
<defs>
<linearGradient id="paint0_linear_6510_23918" x1="15.25" y1="1" x2="15.25" y2="23" gradientUnits="userSpaceOnUse">
<stop stop-color="#A799FF"/>
<stop offset="1" stop-color="#6851FF"/>
</linearGradient>
<linearGradient id="paint1_linear_6510_23918" x1="10.3333" y1="1" x2="19.5662" y2="20.3431" gradientUnits="userSpaceOnUse">
<stop stop-color="white"/>
<stop offset="1" stop-color="#A799FF"/>
</linearGradient>
<linearGradient id="paint2_linear_6510_23918" x1="10.3333" y1="1" x2="19.5662" y2="20.3431" gradientUnits="userSpaceOnUse">
<stop stop-color="white"/>
<stop offset="1" stop-color="#A799FF"/>
</linearGradient>
<linearGradient id="paint3_linear_6510_23918" x1="13.9999" y1="5.40015" x2="13.9999" y2="16.4001" gradientUnits="userSpaceOnUse">
<stop stop-color="white"/>
<stop offset="1" stop-color="#D0C9FF"/>
</linearGradient>
<linearGradient id="paint4_linear_6510_23918" x1="14.6249" y1="5.40015" x2="14.6249" y2="16.4001" gradientUnits="userSpaceOnUse">
<stop stop-color="#A799FF"/>
<stop offset="1" stop-color="#6851FF"/>
</linearGradient>
<linearGradient id="paint5_linear_6510_23918" x1="13.9999" y1="5.40015" x2="13.9999" y2="16.4001" gradientUnits="userSpaceOnUse">
<stop stop-color="white"/>
<stop offset="1" stop-color="#D0C9FF"/>
</linearGradient>
<linearGradient id="paint6_linear_6510_23918" x1="14.6249" y1="5.40015" x2="14.6249" y2="16.4001" gradientUnits="userSpaceOnUse">
<stop stop-color="#A799FF"/>
<stop offset="1" stop-color="#6851FF"/>
</linearGradient>
<linearGradient id="paint7_linear_6510_23918" x1="31.5932" y1="17" x2="31.5932" y2="46.8" gradientUnits="userSpaceOnUse">
<stop stop-color="#A799FF"/>
<stop offset="1" stop-color="#6851FF"/>
</linearGradient>
<linearGradient id="paint8_linear_6510_23918" x1="24.9333" y1="17" x2="37.4396" y2="43.2012" gradientUnits="userSpaceOnUse">
<stop stop-color="white"/>
<stop offset="1" stop-color="#A799FF"/>
</linearGradient>
<linearGradient id="paint9_linear_6510_23918" x1="31.5932" y1="17" x2="31.5932" y2="46.8" gradientUnits="userSpaceOnUse">
<stop stop-color="#A799FF"/>
<stop offset="1" stop-color="#6851FF"/>
</linearGradient>
<linearGradient id="paint10_linear_6510_23918" x1="31.255" y1="33.3901" x2="31.255" y2="46.8002" gradientUnits="userSpaceOnUse">
<stop offset="0.0208333" stop-color="#4523C0"/>
<stop offset="0.520833" stop-color="#522FD4"/>
<stop offset="1" stop-color="#6851FF"/>
</linearGradient>
<linearGradient id="paint11_linear_6510_23918" x1="31.255" y1="33.3901" x2="31.255" y2="46.8002" gradientUnits="userSpaceOnUse">
<stop stop-color="#A799FF"/>
<stop offset="1" stop-color="#6851FF"/>
</linearGradient>
<linearGradient id="paint12_linear_6510_23918" x1="29.9005" y1="33.3901" x2="29.9005" y2="46.8002" gradientUnits="userSpaceOnUse">
<stop stop-color="white"/>
<stop offset="1" stop-color="#D0C9FF"/>
</linearGradient>
<linearGradient id="paint13_linear_6510_23918" x1="29.8999" y1="22.9601" x2="29.8999" y2="37.8601" gradientUnits="userSpaceOnUse">
<stop stop-color="white"/>
<stop offset="1" stop-color="#D0C9FF"/>
</linearGradient>
<linearGradient id="paint14_linear_6510_23918" x1="30.7465" y1="22.9601" x2="30.7465" y2="37.8601" gradientUnits="userSpaceOnUse">
<stop stop-color="#A799FF"/>
<stop offset="1" stop-color="#6851FF"/>
</linearGradient>
<linearGradient id="paint15_linear_6510_23918" x1="29.8999" y1="22.9601" x2="29.8999" y2="37.8601" gradientUnits="userSpaceOnUse">
<stop stop-color="white"/>
<stop offset="1" stop-color="#D0C9FF"/>
</linearGradient>
</defs>
</svg>
