<svg xmlns:xlink="http://www.w3.org/1999/xlink" xmlns="http://www.w3.org/2000/svg" width="370" height="90" viewBox="0 0 370 90" fill="none">
    <path d="M37.272 48.972a22.293 22.293 0 0 0 44.586 0H70.867a11.303 11.303 0 0 1-22.605 0h-10.99z" fill="url(#e49etp1hna)"/>
    <path fill-rule="evenodd" clip-rule="evenodd" d="M69.7 10.133c0 5.597-4.537 10.133-10.133 10.133-5.596 0-10.133-4.536-10.133-10.133C49.434 4.537 53.97 0 59.567 0 65.163 0 69.7 4.537 69.7 10.133zm12.164 38.838a22.293 22.293 0 0 0-44.587 0h10.991a11.302 11.302 0 0 1 22.605 0h10.99zm20.184-35.031v31.29l15.969-17.51h13.944l-18.321 19.7 18.807 23.265h-13.7L106.668 54.96l-4.62 5.026v10.7H90.293V13.94h11.755zM0 27.72h7.296v-9.403l11.592-3.324v12.728h12.403v10.133H18.888v18.402c0 1.135.46 2.08 1.378 2.837.92.757 1.892 1.189 2.919 1.297 1.08.054 1.73.081 1.945.081 1.838 0 4.08-.513 6.729-1.54v11.35c-3.08.864-5.945 1.296-8.593 1.296-3.297 0-6.783-.946-10.458-2.837-3.675-1.946-5.512-6.08-5.512-12.403V37.854H0V27.72zm156.202-.729c-6.052 0-11.241 2.135-15.564 6.404-4.378 4.324-6.566 9.593-6.566 15.808 0 6.053 2.134 11.268 6.404 15.646 4.323 4.323 9.565 6.485 15.726 6.485 4.108 0 8.107-1 11.998-3 3.891-2.053 6.675-4.755 8.35-8.106l-10.214-2.918c-2.648 2.432-6.026 3.648-10.134 3.648-2.594 0-4.836-.622-6.728-1.865-1.892-1.297-3.162-3.135-3.81-5.512h32.264c.324-1.352.486-2.757.486-4.216 0-1.513-.189-3.08-.567-4.702-1.081-5.08-3.648-9.295-7.701-12.646-4.054-3.35-8.701-5.026-13.944-5.026zm10.296 17.672h-20.834c.648-2.053 1.891-3.783 3.729-5.188 1.891-1.405 4.134-2.108 6.728-2.108 2.594 0 4.81.703 6.648 2.108 1.837 1.405 3.08 3.135 3.729 5.188zm19.652-16.942h11.754v3.972c3.243-3.135 7.242-4.702 11.998-4.702 4.864 0 9.052 1.567 12.565 4.702 3.513 3.08 5.269 7.188 5.269 12.322v26.67h-11.754v-23.67c0-2.703-.838-4.892-2.513-6.567-1.621-1.675-3.621-2.513-5.999-2.513-2.864 0-5.188 1.027-6.972 3.08-1.729 2-2.594 4.486-2.594 7.459v22.211H186.15V27.721zm55.033 0h-7.296v10.133h7.296v18.483c0 6.323 1.837 10.457 5.512 12.403 3.675 1.891 7.161 2.837 10.457 2.837 2.649 0 5.513-.432 8.593-1.297V58.93c-2.648 1.028-4.891 1.541-6.728 1.541-.216 0-.865-.027-1.946-.08-1.026-.109-1.999-.541-2.918-1.298s-1.378-1.702-1.378-2.837V37.854h12.403V27.72h-12.403V14.993l-11.592 3.324v9.404zm36.518 5.674c4.161-4.27 9.16-6.404 14.997-6.404 4.593 0 8.539 1.46 11.835 4.378V27.72h11.755v42.964h-11.755v-3.567c-3.242 2.81-7.188 4.216-11.835 4.216-5.783 0-10.782-2.189-14.997-6.566-4.162-4.378-6.242-9.566-6.242-15.565 0-6.215 2.08-11.484 6.242-15.808zm7.944 23.915c2.216 2.27 4.945 3.404 8.188 3.404 3.134 0 5.836-1.134 8.106-3.404 2.27-2.324 3.405-5.026 3.405-8.107 0-3.08-1.135-5.783-3.405-8.107-2.27-2.323-4.972-3.485-8.106-3.485-3.243 0-5.972 1.162-8.188 3.486-2.162 2.27-3.243 4.971-3.243 8.106s1.081 5.837 3.243 8.107zm45.525-24.158c-4 4.107-5.999 9.269-5.999 15.484 0 6.106 1.999 11.24 5.999 15.402 3.999 4.161 9.079 6.242 15.24 6.242 4.702 0 8.647-1.324 11.836-3.972v2.189c0 3.188-.865 5.647-2.595 7.377-1.675 1.729-4.08 2.594-7.214 2.594-4.864 0-8.08-1.946-9.647-5.837h-11.755c1.297 5.458 3.945 9.62 7.945 12.484 3.999 2.864 8.539 4.297 13.619 4.297 6.215 0 11.322-2 15.321-6 4.053-3.945 6.08-8.916 6.08-14.915V27.72h-11.754v3.729c-3.243-2.919-7.188-4.405-11.836-4.459h-.486c-5.783 0-10.701 2.054-14.754 6.161zm8.349 23.347c-2.269-2.162-3.404-4.783-3.404-7.863s1.108-5.702 3.323-7.864c2.27-2.215 4.972-3.323 8.107-3.323 3.188 0 5.891 1.108 8.106 3.323 2.27 2.162 3.405 4.783 3.405 7.864 0 3.08-1.135 5.728-3.405 7.944-2.269 2.162-4.972 3.243-8.106 3.243-3.135 0-5.81-1.108-8.026-3.324z" fill="#100821"/>
    <defs>
        <linearGradient id="e49etp1hna" x1="37.272" y1="48.185" x2="81.858" y2="49.234" gradientUnits="userSpaceOnUse">
            <stop stop-color="#617AFF"/>
            <stop offset=".505" stop-color="#8260FF"/>
            <stop offset="1" stop-color="#BC64FF"/>
        </linearGradient>
    </defs>
</svg>