<svg width="24" height="24" viewBox="0 0 24 24" fill="none" xmlns="http://www.w3.org/2000/svg">
<path d="M20.7182 17.0826C24.3332 16.708 25.3761 21.5435 21.7258 22.8709C14.8993 24.9568 14.0459 22.9657 8.12012 23.0605C15.3259 22.065 18.4074 19.8843 20.7182 17.0826Z" fill="url(#paint0_linear_2575_601)"/>
<path d="M0.155768 21.3065C-0.389019 19.6115 0.487619 17.0399 2.90534 17.0399C12.197 17.0399 15.5629 14.3851 18.1229 12.0148C19.7821 11.92 20.3672 12.4055 21.0621 13.4844C21.4285 14.0533 21.9154 16.0918 20.0192 17.988C14.8518 23.582 7.07714 22.6813 4.28015 23.7716C2.5261 24.3375 0.700555 23.0015 0.155768 21.3065Z" fill="url(#paint1_linear_2575_601)"/>
<path d="M2.66797 14.954C2.66796 13.9585 3.71091 11.92 5.70199 11.7303C10.1108 11.1141 13.1448 9.9763 15.4678 8.12744C16.89 8.31707 17.364 8.83854 17.9803 9.50223C18.407 10.0711 18.7388 11.1141 18.1699 12.0622C13.4767 17.0873 7.07679 16.9925 3.5213 17.0873C3.04723 17.0999 2.66797 15.9495 2.66797 14.954Z" fill="url(#paint2_linear_2575_601)"/>
<path d="M8.54676 6.42077C10.3008 5.85189 12.5289 5.04598 13.8089 3.62378C15.2311 4.80894 16.2266 6.6578 15.5155 8.17481C11.2963 11.2088 8.64157 11.2088 5.56014 11.7777C4.99126 10.877 4.51719 7.51112 8.54676 6.42077Z" fill="url(#paint3_linear_2575_601)"/>
<path d="M9.13933 1.37105C9.06445 1.13916 9.20502 0.943396 9.43795 1.01499C10.2976 1.27921 12.1403 2.10342 13.809 3.62377C12.529 5.18818 9.49496 6.18373 8.54682 6.46817C7.46487 3.94361 10.0269 4.11988 9.13933 1.37105Z" fill="url(#paint4_linear_2575_601)"/>
<ellipse cx="15.0418" cy="13.911" rx="2.51255" ry="3.08143" fill="url(#paint5_linear_2575_601)"/>
<ellipse cx="15.0412" cy="13.911" rx="1.27998" ry="1.75405" fill="black"/>
<path d="M14.9937 12.9155C14.0322 12.9155 13.0975 13.1999 12.543 13.5792C12.6779 12.0334 13.7449 10.8296 15.0411 10.8296C16.3415 10.8296 17.4112 12.0412 17.5405 13.5941C16.7478 13.1525 15.9428 12.9155 14.9937 12.9155Z" fill="#764523"/>
<ellipse cx="8.5941" cy="13.911" rx="2.51255" ry="3.08143" fill="url(#paint6_linear_2575_601)"/>
<ellipse cx="8.59394" cy="13.911" rx="1.27998" ry="1.75405" fill="black"/>
<path d="M8.54645 12.9155C7.5849 12.9155 6.65018 13.1999 6.0957 13.5792C6.23066 12.0334 7.29763 10.8296 8.59386 10.8296C9.89425 10.8296 10.9639 12.0412 11.0933 13.5941C10.3005 13.1525 9.49557 12.9155 8.54645 12.9155Z" fill="#764523"/>
<path d="M15.7527 20.1214C15.4208 20.548 13.9486 19.5999 11.7231 19.5999C9.49765 19.5999 7.97799 20.548 7.69355 20.1214C7.40911 19.6947 9.49765 18.2251 11.7231 18.2251C13.9486 18.2251 16.0845 19.6947 15.7527 20.1214Z" fill="white"/>
<defs>
<linearGradient id="paint0_linear_2575_601" x1="20.3984" y1="22.4443" x2="18.0755" y2="19.8843" gradientUnits="userSpaceOnUse">
<stop stop-color="#7A4921"/>
<stop offset="1" stop-color="#9C6531"/>
</linearGradient>
<linearGradient id="paint1_linear_2575_601" x1="12.6711" y1="21.6857" x2="10.5408" y2="16.3941" gradientUnits="userSpaceOnUse">
<stop stop-color="#7A4921"/>
<stop offset="1" stop-color="#9C6531"/>
</linearGradient>
<linearGradient id="paint2_linear_2575_601" x1="11.847" y1="15.5757" x2="10.1417" y2="11.3971" gradientUnits="userSpaceOnUse">
<stop stop-color="#7A4921"/>
<stop offset="1" stop-color="#9C6531"/>
</linearGradient>
<linearGradient id="paint3_linear_2575_601" x1="11.2593" y1="10.1309" x2="9.6267" y2="6.39654" gradientUnits="userSpaceOnUse">
<stop stop-color="#7A4921"/>
<stop offset="1" stop-color="#9C6531"/>
</linearGradient>
<linearGradient id="paint4_linear_2575_601" x1="11.012" y1="5.1882" x2="9.51355" y2="1.98495" gradientUnits="userSpaceOnUse">
<stop stop-color="#804F26"/>
<stop offset="1" stop-color="#9C6531"/>
</linearGradient>
<linearGradient id="paint5_linear_2575_601" x1="15.0893" y1="12.9155" x2="15.0418" y2="16.9925" gradientUnits="userSpaceOnUse">
<stop stop-color="#FBD5B3"/>
<stop offset="1" stop-color="#FEFEFE"/>
</linearGradient>
<linearGradient id="paint6_linear_2575_601" x1="8.6415" y1="12.9155" x2="8.5941" y2="16.9925" gradientUnits="userSpaceOnUse">
<stop stop-color="#FBD5B3"/>
<stop offset="1" stop-color="#FEFEFE"/>
</linearGradient>
</defs>
</svg>
