<svg width="140" height="40" viewBox="0 0 140 40" fill="none" xmlns="http://www.w3.org/2000/svg">
<path d="M73.4988 3.07397V39.9938H69.667C68.886 39.9921 68.1132 39.8321 67.394 39.5233C66.6749 39.2145 66.024 38.763 65.4795 38.1954C64.3645 37.0335 63.7419 35.4758 63.7447 33.8549V15.4873C63.7443 15.3904 63.7163 15.2957 63.6639 15.2147C63.6122 15.1348 63.5383 15.0723 63.4516 15.0351C63.3652 14.9977 63.2697 14.9877 63.1776 15.0064C63.0855 15.0251 63.0013 15.0717 62.9358 15.1399L59.1516 19.0638C59.0853 19.1332 59.0405 19.2207 59.0226 19.3155C59.0048 19.4104 59.0146 19.5085 59.051 19.5978C59.0868 19.6872 59.1475 19.7634 59.224 19.8173C59.302 19.8717 59.393 19.9011 59.486 19.9011H61.0975C61.223 19.9011 61.3437 19.9535 61.4333 20.0458C61.5227 20.1389 61.5725 20.2639 61.5719 20.3939V29.5207C61.5723 29.6507 61.5225 29.7756 61.4333 29.8688C61.3896 29.9143 61.3375 29.9505 61.2798 29.9751C61.222 29.9999 61.1601 30.0127 61.0975 30.0128H55.5247C55.1343 30.0118 54.7479 29.9319 54.3883 29.7777C54.0288 29.6234 53.7032 29.3981 53.4306 29.1146L48.7349 24.2458C47.6197 23.0837 46.9971 21.5257 47 19.9046C46.9975 18.2839 47.6198 16.7264 48.7342 15.5642L62.4456 1.35386C62.855 0.926632 63.3442 0.586168 63.8846 0.352269C64.4223 0.120342 65.0006 0.000538965 65.585 0H70.5386C70.9292 0.00176385 71.3155 0.0824761 71.675 0.237414C72.0344 0.392352 72.3598 0.618402 72.632 0.902339C73.189 1.48409 73.5 2.26327 73.4988 3.07397ZM92.5257 35.2032V38.3324C92.5257 38.7748 92.3561 39.199 92.0548 39.5115C91.9068 39.6657 91.73 39.7884 91.5346 39.8723C91.3392 39.9562 91.1293 39.9997 90.917 40H82.7695V39.5632C82.7695 38.5861 82.3944 37.4803 81.7284 36.7897L75.6743 30.5147V19.7299H77.598C78.0652 19.7297 78.5277 19.8247 78.9578 20.0095C79.3906 20.1958 79.7826 20.4676 80.1107 20.8091L82.7695 23.5678L91.4886 32.5975C91.8183 32.94 92.0796 33.3467 92.2575 33.7934C92.4354 34.2407 92.5257 34.7195 92.5257 35.2032ZM92.8615 0.844331L77.4291 16.8397C77.242 17.0341 77.0184 17.1887 76.7714 17.2943C76.5246 17.3999 76.2594 17.4544 75.9914 17.4548H75.666V4.56272C75.666 4.43291 75.7157 4.30818 75.8045 4.21465L79.1598 0.740884C79.3836 0.508174 79.6508 0.32286 79.9459 0.195705C80.2393 0.0689195 80.555 0.00331324 80.874 0.00279577H92.5209C92.6156 0.00184796 92.7085 0.0301236 92.7871 0.0838736C92.8459 0.125241 92.8952 0.179056 92.9315 0.241606C92.9679 0.304156 92.9904 0.373951 92.9975 0.446178C93.0047 0.518405 92.9963 0.591342 92.9729 0.65996C92.9496 0.728578 92.9118 0.791242 92.8622 0.843628L92.8615 0.844331Z" fill="#1D1D1F"/>
</svg>
