<svg width="140" height="40" viewBox="0 0 140 40" fill="none" xmlns="http://www.w3.org/2000/svg">
<path d="M33.0828 8.08737L20.8452 1.59964C19.3425 0.801245 17.5512 0.801245 16.0483 1.59291L3.68333 8.10751C1.81818 9.22793 0.0738026 10.5496 0 14.4007V17.5069H4.81045V13.2601L18.4501 5.98742L31.9892 13.2601V17.5069H36.7997V14.4007C36.7191 10.5295 34.9613 9.21451 33.0828 8.08737Z" fill="#1D1D1F"/>
<path d="M31.9825 27.1816L20.852 33.4142V28.3824C24.7635 27.4633 27.3399 24.2764 27.3399 20.0162C27.3399 14.8501 23.7704 11.3815 18.4501 11.3815C13.1298 11.3815 9.56053 14.8501 9.56053 20.0162C9.56053 24.2831 12.1301 27.4633 16.0483 28.3824V33.421L4.81716 27.1816V22.5387H0V25.6384C0.0805102 29.4827 1.81818 30.8112 3.68333 31.9316L16.0483 38.4461C17.5512 39.2379 19.3492 39.2379 20.8452 38.4395L33.0761 31.9516C34.9546 30.8313 36.7191 29.5096 36.7929 25.6384V22.5387H31.9825V27.1816ZM14.0289 20.0162C14.0289 17.1848 15.5987 15.6284 18.4501 15.6284C21.3015 15.6284 22.8715 17.1848 22.8715 20.0162C22.8715 22.7601 21.221 24.404 18.4501 24.404C15.6793 24.404 14.0289 22.7669 14.0289 20.0162Z" fill="#1D1D1F"/>
<path d="M120.932 9.57018H114.23L105.615 18.3993V5.21594H100.087V31.9115H105.615V25.2293L108.46 22.3176L115.961 31.9115H122.167L111.908 18.7953L120.932 9.57018Z" fill="#1D1D1F"/>
<path d="M138.96 8.98621C133.653 8.98621 130.842 11.16 129.795 12.2066V9.54978H124.18V9.56319V31.9113H129.795V13.9711L140 13.9308L139.98 8.98621C139.665 8.98621 139.323 8.98621 138.96 8.98621Z" fill="#1D1D1F"/>
<path d="M87.6616 8.9798C83.4214 8.9798 80.758 11.7238 80.5633 11.9385V9.55008H74.9478V9.55678V31.9117H80.5633V13.4749C81.0934 13.4749 84.2467 13.4749 84.7364 13.4749C84.9511 13.4749 85.1592 13.4816 85.3605 13.4883C86.7627 13.5353 87.8294 13.7634 88.621 14.1794C88.8828 14.327 89.1242 14.4947 89.3456 14.6759C90.5332 15.7358 90.8486 17.5407 90.8486 20.2311C90.8486 22.2975 90.8486 31.9184 90.8486 31.9184H96.3768V18.5605C96.3701 13.0254 93.8341 8.9798 87.6616 8.9798Z" fill="#1D1D1F"/>
<path d="M65.3874 12.6093C64.6963 11.6365 63.8845 10.8716 62.9317 10.2946C61.2746 9.44259 59.3961 8.95953 57.4035 8.95953C50.7816 8.95953 45.4075 14.253 45.4075 20.7744C45.4075 25.6988 48.4668 29.9188 52.8144 31.6901C54.23 32.267 55.7798 32.5892 57.4035 32.5892C58.4233 32.5892 59.4161 32.4617 60.3621 32.2269C60.389 32.2202 60.4159 32.2134 60.4426 32.2067C60.5433 32.18 60.6373 32.1531 60.7311 32.1262C61.1472 31.9987 61.5429 31.8579 61.912 31.6901C63.5691 30.9588 64.7432 29.8585 65.3874 28.6173V31.9048H71.0029V9.54323H65.3874V12.6093ZM58.3764 27.9867C54.0018 27.9867 51.1706 25.0346 51.1706 20.7811C51.1706 16.2657 53.9215 13.5754 58.3764 13.5754C62.3012 13.5754 65.5819 16.1852 65.5819 20.7811C65.5819 25.2829 62.187 27.9867 58.3764 27.9867Z" fill="#1D1D1F"/>
</svg>
