<svg width="141" height="40" viewBox="0 0 141 40" fill="none" xmlns="http://www.w3.org/2000/svg">
<path d="M26.1609 16.6744H39.2531V10H26.1609V16.6744Z" fill="#1D1D1F"/>
<path d="M0 10V16.6744H6.5344V30.0233H13.0688V16.6744H19.6265V10H0Z" fill="#1D1D1F"/>
<path d="M19.6266 30.0233H39.2531V23.3488H26.161V16.6744H19.6266V30.0233Z" fill="#1D1D1F"/>
<path d="M55.9392 15.0408H46.3243V17.818H49.5448V26.5227H52.7187V17.818H55.9392V15.0408Z" fill="#1D1D1F"/>
<path d="M59.5564 17.7246C57.2927 17.7246 55.6124 19.2415 55.6124 22.2286C55.6124 24.8657 57.036 26.7094 59.6264 26.7094C60.98 26.7094 62.0768 26.3593 63.127 25.7292L62.0068 23.8389C61.1433 24.2823 60.5366 24.4457 59.7664 24.4457C58.973 24.4457 58.4129 24.0256 58.2962 23.0688H63.3604C63.3837 22.9288 63.3837 22.7421 63.3837 22.4854C63.407 19.2882 61.9368 17.7246 59.5564 17.7246ZM58.3429 21.2252C58.4362 20.3617 58.8096 19.9183 59.4864 19.9183C60.3499 19.9183 60.6533 20.3617 60.7933 21.2252H58.3429Z" fill="#1D1D1F"/>
<path d="M69.008 24.3057C68.2145 24.3057 67.7945 23.6055 67.7945 22.2286C67.7945 20.8751 68.1679 20.105 68.938 20.105C69.5681 20.105 69.8481 20.455 70.2682 21.2252L72.2985 19.6849C71.5517 18.4714 70.6183 17.7246 68.9847 17.7246C66.2309 17.7246 64.8773 19.5449 64.8773 22.182C64.8773 25.0758 66.3942 26.686 68.9146 26.686C70.4316 26.686 71.365 26.1026 72.3685 24.6324L70.5016 23.1621C69.9415 24.0023 69.5681 24.3057 69.008 24.3057Z" fill="#1D1D1F"/>
<path d="M79.1829 17.7246C78.156 17.7246 77.5493 18.0747 77.0125 18.4714V14.5741L74.0487 15.7643V26.5461H77.0125V21.6219C77.0125 20.5484 77.3859 20.245 78.016 20.245C78.6228 20.245 78.9962 20.5484 78.9962 21.6452V26.5461H81.96V21.2719C81.96 19.0082 81.0498 17.7246 79.1829 17.7246Z" fill="#1D1D1F"/>
<path d="M89.0778 23.9323C87.701 23.9323 87.1409 22.532 87.1409 20.7818C87.1409 18.9615 87.7243 17.6312 89.0545 17.6312C90.1047 17.6312 90.5014 18.308 90.8981 19.3815L93.7919 18.238C92.9985 16.0677 91.8783 14.8541 89.0545 14.8541C85.974 14.8541 83.8036 17.0945 83.8036 20.7818C83.8036 24.189 85.6239 26.7094 89.0312 26.7094C91.7616 26.7094 93.0452 25.2392 93.8153 23.7456L91.1315 22.322C90.5014 23.3955 90.0813 23.9323 89.0778 23.9323Z" fill="#1D1D1F"/>
<path d="M98.5761 18.5414V17.9113H95.6123V26.5227H98.5761V21.8319C98.5761 20.7817 99.0195 20.4317 99.743 20.4317C100.326 20.4317 100.746 20.7351 101.12 21.1551L101.82 18.098C101.47 17.8879 101.05 17.7246 100.42 17.7246C99.6496 17.7246 99.0662 18.0513 98.5761 18.5414Z" fill="#1D1D1F"/>
<path d="M108.144 22.8354C108.144 23.9089 107.771 24.2123 107.164 24.2123C106.557 24.2123 106.184 23.9089 106.184 22.8121V17.9113H103.22V23.1855C103.22 25.4492 104.13 26.7094 106.021 26.7094C107.024 26.7094 107.654 26.3593 108.168 25.9626V26.546H111.132V17.9346H108.168V22.8354" fill="#1D1D1F"/>
<path d="M118.389 17.7246C117.362 17.7246 116.756 18.0746 116.219 18.4714V17.8879H113.255V26.4993H116.219V21.5752C116.219 20.5017 116.592 20.1983 117.222 20.1983C117.829 20.1983 118.203 20.5017 118.203 21.5985V26.4993H121.166V21.2252C121.166 19.0081 120.28 17.7246 118.389 17.7246Z" fill="#1D1D1F"/>
<path d="M127.047 24.3057C126.254 24.3057 125.834 23.6055 125.834 22.2286C125.834 20.8751 126.207 20.105 126.954 20.105C127.584 20.105 127.864 20.455 128.284 21.2252L130.315 19.6849C129.568 18.4714 128.634 17.7246 127.001 17.7246C124.247 17.7246 122.893 19.5449 122.893 22.182C122.893 25.0758 124.41 26.686 126.931 26.686C128.448 26.686 129.381 26.1026 130.385 24.6324L128.518 23.1621C128.004 24.0023 127.607 24.3057 127.047 24.3057Z" fill="#1D1D1F"/>
<path d="M137.222 17.7246C136.196 17.7246 135.589 18.0747 135.052 18.4714V14.5741L132.088 15.7643V26.5461H135.052V21.6219C135.052 20.5484 135.426 20.245 136.056 20.245C136.662 20.245 137.036 20.5484 137.036 21.6452V26.5461H140V21.2719C140.023 19.0082 139.113 17.7246 137.222 17.7246Z" fill="#1D1D1F"/>
</svg>

